<svg width="48" height="31" viewBox="0 0 48 31" fill="none" xmlns="http://www.w3.org/2000/svg">
<g id="apple-pay" clip-path="url(#clip0_39_1667)">
<g id="Group">
<path id="XMLID_4_" d="M43.7014 0H4.29862C4.13451 0 3.97012 0 3.8063 0.000956978C3.66783 0.00194296 3.52968 0.00347992 3.39152 0.00724983C3.09022 0.0153986 2.78634 0.0331752 2.4888 0.08665C2.18651 0.141053 1.90522 0.229791 1.6308 0.369509C1.36102 0.506705 1.11403 0.686153 0.89999 0.900284C0.685856 1.11442 0.506408 1.361 0.369241 1.63107C0.229494 1.90549 0.140698 2.18687 0.086672 2.48939C0.0329102 2.78701 0.0150147 3.09084 0.00689488 3.39182C0.00318297 3.52997 0.0015909 3.66813 0.000689024 3.80625C-0.000267954 3.97041 5.10388e-05 4.13446 5.10388e-05 4.29892V26.4306C5.10388e-05 26.595 -0.000267954 26.7588 0.000689024 26.9233C0.0015909 27.0614 0.00318297 27.1995 0.00689488 27.3377C0.0150147 27.6384 0.0329102 27.9422 0.086672 28.2398C0.140698 28.5424 0.229494 28.8237 0.369241 29.0981C0.506408 29.3682 0.685856 29.6151 0.89999 29.8289C1.11403 30.0434 1.36102 30.2228 1.6308 30.3597C1.90522 30.4998 2.18651 30.5885 2.4888 30.6429C2.78634 30.696 3.09022 30.7141 3.39152 30.7223C3.52968 30.7254 3.66783 30.7273 3.8063 30.7279C3.97012 30.7292 4.13451 30.7292 4.29862 30.7292H43.7014C43.8652 30.7292 44.0296 30.7292 44.1934 30.7279C44.3316 30.7273 44.4697 30.7254 44.6085 30.7223C44.9092 30.7141 45.213 30.696 45.5113 30.6429C45.8132 30.5885 46.0945 30.4998 46.369 30.3597C46.639 30.2228 46.8853 30.0434 47.0998 29.8289C47.3136 29.6151 47.493 29.3682 47.6305 29.0981C47.7706 28.8237 47.8593 28.5424 47.9131 28.2398C47.9669 27.9422 47.9843 27.6384 47.9925 27.3377C47.9962 27.1995 47.9981 27.0614 47.9987 26.9233C48 26.7588 48 26.595 48 26.4306V4.29892C48 4.13446 48 3.97041 47.9987 3.80625C47.9981 3.66813 47.9962 3.52997 47.9925 3.39182C47.9843 3.09084 47.9669 2.78701 47.9131 2.48939C47.8593 2.18687 47.7706 1.90549 47.6305 1.63107C47.493 1.361 47.3136 1.11442 47.0998 0.900284C46.8853 0.686153 46.639 0.506705 46.369 0.369509C46.0945 0.229791 45.8132 0.141053 45.5113 0.08665C45.213 0.0331752 44.9092 0.0153986 44.6085 0.00724983C44.4697 0.00347992 44.3316 0.00194296 44.1934 0.000956978C44.0296 0 43.8652 0 43.7014 0Z" fill="black"/>
<path id="XMLID_3_" d="M43.7016 1.02417L44.1863 1.0251C44.3176 1.02603 44.4489 1.02745 44.5809 1.03104C44.8106 1.03725 45.0793 1.04969 45.3297 1.09458C45.5474 1.13379 45.73 1.19341 45.9052 1.28261C46.0782 1.37051 46.2367 1.48569 46.3751 1.62388C46.514 1.76299 46.6293 1.92173 46.7184 2.09662C46.8071 2.27047 46.8663 2.45218 46.9053 2.67148C46.9501 2.91919 46.9625 3.18859 46.9687 3.41969C46.9723 3.55013 46.974 3.68057 46.9747 3.81411C46.9759 3.97561 46.9759 4.13702 46.9759 4.29883V26.4305C46.9759 26.5923 46.9759 26.7534 46.9746 26.9184C46.974 27.0488 46.9723 27.1792 46.9687 27.3099C46.9624 27.5406 46.9501 27.8099 46.9047 28.0605C46.8663 28.2768 46.8071 28.4585 46.7179 28.6333C46.6291 28.8077 46.514 28.9663 46.3756 29.1045C46.2365 29.2437 46.0785 29.3586 45.9035 29.4473C45.7296 29.536 45.5473 29.5956 45.3318 29.6344C45.0763 29.6799 44.7963 29.6925 44.5855 29.6982C44.4529 29.7012 44.3208 29.703 44.1856 29.7036C44.0245 29.7049 43.8627 29.7048 43.7016 29.7048H4.29876C4.29661 29.7048 4.29452 29.7048 4.29235 29.7048C4.13303 29.7048 3.97338 29.7048 3.81116 29.7036C3.6789 29.703 3.54692 29.7012 3.41932 29.6983C3.20368 29.6925 2.92358 29.68 2.67016 29.6347C2.45275 29.5956 2.27049 29.536 2.09429 29.4461C1.9209 29.3582 1.76306 29.2435 1.62383 29.104C1.48568 28.9661 1.37087 28.808 1.2821 28.6333C1.19325 28.4588 1.1338 28.2765 1.09471 28.0576C1.04953 27.8075 1.03712 27.5393 1.03091 27.3101C1.02737 27.1789 1.02589 27.0477 1.02505 26.9172L1.02441 26.5322L1.02444 26.4305V4.29883L1.02441 4.19716L1.02502 3.81289C1.02589 3.68167 1.02737 3.55048 1.03091 3.41937C1.03712 3.18996 1.04953 2.92165 1.09509 2.66942C1.13383 2.45253 1.19325 2.27024 1.28257 2.09483C1.37064 1.92144 1.48565 1.76316 1.62453 1.62431C1.76286 1.48593 1.92122 1.37089 2.09571 1.28215C2.27002 1.19338 2.45263 1.13379 2.67004 1.09467C2.92054 1.04966 3.18939 1.03725 3.41964 1.03101C3.55089 1.02745 3.68214 1.02603 3.81241 1.02513L4.29876 1.02417H43.7016Z" fill="white"/>
<g id="Group_2">
<g id="Group_3">
<path id="Vector" d="M13.1035 10.3354C13.5145 9.82134 13.7934 9.13111 13.7198 8.42578C13.1182 8.4557 12.384 8.8227 11.959 9.33716C11.5773 9.77772 11.2395 10.4968 11.3276 11.1726C12.003 11.2312 12.6777 10.835 13.1035 10.3354Z" fill="black"/>
<path id="Vector_2" d="M13.7121 11.3045C12.7313 11.246 11.8974 11.8611 11.429 11.8611C10.9604 11.8611 10.2431 11.3339 9.46739 11.3481C8.4577 11.3629 7.52082 11.9338 7.00845 12.8418C5.95458 14.6582 6.73033 17.3526 7.75516 18.8319C8.25284 19.5638 8.85263 20.3697 9.64295 20.3407C10.3897 20.3114 10.6823 19.8572 11.59 19.8572C12.497 19.8572 12.7607 20.3407 13.5511 20.3261C14.3708 20.3114 14.8833 19.5938 15.3809 18.8612C15.9519 18.0269 16.1856 17.2213 16.2003 17.1771C16.1856 17.1624 14.6197 16.5617 14.6051 14.7604C14.5904 13.2521 15.8346 12.5347 15.8931 12.4902C15.1905 11.4511 14.0927 11.3339 13.7121 11.3045Z" fill="black"/>
</g>
<g id="Group_4">
<path id="Vector_3" d="M22.2518 9.26367C24.3835 9.26367 25.8679 10.7331 25.8679 12.8725C25.8679 15.0195 24.353 16.4965 22.1983 16.4965H19.8381V20.25H18.1328V9.26367L22.2518 9.26367ZM19.8381 15.0651H21.7948C23.2794 15.0651 24.1244 14.2658 24.1244 12.8801C24.1244 11.4945 23.2794 10.7027 21.8024 10.7027H19.8381V15.0651Z" fill="black"/>
<path id="Vector_4" d="M26.3135 17.9736C26.3135 16.5726 27.387 15.7124 29.2905 15.6058L31.483 15.4764V14.8597C31.483 13.9689 30.8815 13.436 29.8767 13.436C28.9248 13.436 28.331 13.8927 28.1865 14.6085H26.6333C26.7247 13.1618 27.9579 12.0959 29.9375 12.0959C31.8789 12.0959 33.1199 13.1238 33.1199 14.7302V20.25H31.5438V18.9329H31.5059C31.0416 19.8237 30.0289 20.387 28.9783 20.387C27.4099 20.387 26.3135 19.4125 26.3135 17.9736ZM31.483 17.2504V16.6185L29.5111 16.7402C28.5289 16.8088 27.9732 17.2427 27.9732 17.928C27.9732 18.6283 28.5518 19.0852 29.435 19.0852C30.5846 19.0852 31.483 18.2933 31.483 17.2504Z" fill="black"/>
<path id="Vector_5" d="M34.6073 23.1961V21.8637C34.7289 21.8941 35.0029 21.8941 35.1401 21.8941C35.9013 21.8941 36.3125 21.5744 36.5637 20.7522C36.5637 20.7369 36.7084 20.2649 36.7084 20.2573L33.8154 12.2402H35.5968L37.6222 18.7575H37.6524L39.6778 12.2402H41.4136L38.4137 20.6683C37.7288 22.6099 36.937 23.2342 35.2772 23.2342C35.1401 23.2342 34.7289 23.2189 34.6073 23.1961Z" fill="black"/>
</g>
</g>
</g>
</g>
<defs>
<clipPath id="clip0_39_1667">
<rect width="48" height="30.7292" fill="white"/>
</clipPath>
</defs>
</svg>
