<svg width="20" height="20" viewBox="0 0 20 20" fill="none" xmlns="http://www.w3.org/2000/svg">
<g id="icon-profile" clip-path="url(#clip0_23_150)">
<g id="Profile Circle">
<path id="Vector" d="M12.5837 7.50008C12.5837 8.92682 11.4271 10.0834 10.0003 10.0834V11.5834C12.2555 11.5834 14.0837 9.75524 14.0837 7.50008H12.5837ZM10.0003 10.0834C8.57359 10.0834 7.41699 8.92682 7.41699 7.50008H5.91699C5.91699 9.75524 7.74516 11.5834 10.0003 11.5834V10.0834ZM7.41699 7.50008C7.41699 6.07335 8.57359 4.91675 10.0003 4.91675V3.41675C7.74516 3.41675 5.91699 5.24492 5.91699 7.50008H7.41699ZM10.0003 4.91675C11.4271 4.91675 12.5837 6.07335 12.5837 7.50008H14.0837C14.0837 5.24492 12.2555 3.41675 10.0003 3.41675V4.91675ZM7.50033 14.0834H12.5003V12.5834H7.50033V14.0834ZM2.41699 10.0001C2.41699 5.81192 5.81217 2.41675 10.0003 2.41675V0.916748C4.98374 0.916748 0.916992 4.98349 0.916992 10.0001H2.41699ZM10.0003 2.41675C14.1885 2.41675 17.5837 5.81192 17.5837 10.0001H19.0837C19.0837 4.98349 15.0169 0.916748 10.0003 0.916748V2.41675ZM17.5837 10.0001C17.5837 12.1507 16.6894 14.0912 15.2503 15.4722L16.289 16.5545C18.0105 14.9024 19.0837 12.5759 19.0837 10.0001H17.5837ZM15.2503 15.4722C13.8871 16.7805 12.0383 17.5834 10.0003 17.5834V19.0834C12.4407 19.0834 14.6576 18.1201 16.289 16.5545L15.2503 15.4722ZM12.5003 14.0834C13.7529 14.0834 14.7987 14.9756 15.034 16.1596L16.5053 15.8672C16.1332 13.9949 14.4824 12.5834 12.5003 12.5834V14.0834ZM10.0003 17.5834C7.9624 17.5834 6.11357 16.7805 4.75031 15.4722L3.7117 16.5545C5.34305 18.1201 7.55998 19.0834 10.0003 19.0834V17.5834ZM4.75031 15.4722C3.31128 14.0912 2.41699 12.1507 2.41699 10.0001H0.916992C0.916992 12.5759 1.99014 14.9024 3.7117 16.5545L4.75031 15.4722ZM7.50033 12.5834C5.51824 12.5834 3.86749 13.9949 3.49539 15.8672L4.96662 16.1596C5.20191 14.9756 6.24775 14.0834 7.50033 14.0834V12.5834Z" fill="black"/>
</g>
</g>
<defs>
<clipPath id="clip0_23_150">
<rect width="20" height="20" fill="white"/>
</clipPath>
</defs>
</svg>
