<svg width="20" height="20" viewBox="0 0 20 20" fill="none" xmlns="http://www.w3.org/2000/svg">
<g id="icon-lang" clip-path="url(#clip0_23_179)">
<g id="Website">
<path id="Vector" d="M6.66699 10.0001H5.91699H6.66699ZM13.3337 10.0001H14.0837H13.3337ZM10.0003 13.3334V14.0834V13.3334ZM10.0003 8.33342V9.08342V8.33342ZM11.7248 18.1548L11.8793 18.8887L11.7248 18.1548ZM8.27582 18.1548L8.12139 18.8887L8.27582 18.1548ZM2.2825 6.85108L1.58818 6.56749H1.58818L2.2825 6.85108ZM1.84564 11.7246L1.11172 11.879V11.879L1.84564 11.7246ZM8.27582 1.8454L8.12139 1.11147L8.27582 1.8454ZM11.7248 1.8454L11.8793 1.11147L11.7248 1.8454ZM17.651 6.88115L17.8687 7.59886L17.651 6.88115ZM2.34863 6.88085L2.13093 7.59855L2.34863 6.88085ZM17.0247 7.13673C17.3848 8.01923 17.5837 8.9855 17.5837 10.0001H19.0837C19.0837 8.78785 18.8458 7.62931 18.4135 6.56998L17.0247 7.13673ZM17.5837 10.0001C17.5837 10.5391 17.5275 11.0642 17.4211 11.5702L18.8889 11.879C19.0166 11.2721 19.0837 10.6435 19.0837 10.0001H17.5837ZM17.4211 11.5702C16.8051 14.4977 14.4979 16.8048 11.5704 17.4208L11.8793 18.8887C15.3887 18.1502 18.1505 15.3884 18.8889 11.879L17.4211 11.5702ZM11.5704 17.4208C11.0645 17.5273 10.5394 17.5834 10.0003 17.5834V19.0834C10.6438 19.0834 11.2724 19.0164 11.8793 18.8887L11.5704 17.4208ZM10.0003 17.5834C9.4613 17.5834 8.93619 17.5273 8.43026 17.4208L8.12139 18.8887C8.72828 19.0164 9.35688 19.0834 10.0003 19.0834V17.5834ZM2.41699 10.0001C2.41699 8.98471 2.61614 8.01772 2.97682 7.13466L1.58818 6.56749C1.15523 7.6275 0.916992 8.7869 0.916992 10.0001H2.41699ZM8.43026 17.4208C5.50274 16.8048 3.19558 14.4977 2.57957 11.5702L1.11172 11.879C1.85017 15.3884 4.61197 18.1502 8.12139 18.8887L8.43026 17.4208ZM2.57957 11.5702C2.47311 11.0642 2.41699 10.5391 2.41699 10.0001H0.916992C0.916992 10.6435 0.984014 11.2721 1.11172 11.879L2.57957 11.5702ZM2.97682 7.13466C3.91581 4.83568 5.95133 3.10094 8.43026 2.57933L8.12139 1.11147C5.14784 1.73717 2.71243 3.81493 1.58818 6.56749L2.97682 7.13466ZM8.43026 2.57933C8.93619 2.47287 9.4613 2.41675 10.0003 2.41675V0.916748C9.35688 0.916748 8.72828 0.98377 8.12139 1.11147L8.43026 2.57933ZM10.0003 2.41675C10.5394 2.41675 11.0645 2.47287 11.5704 2.57933L11.8793 1.11147C11.2724 0.98377 10.6438 0.916748 10.0003 0.916748V2.41675ZM11.5704 2.57933C14.0501 3.1011 16.0861 4.83673 17.0247 7.13673L18.4135 6.56998C17.2897 3.81618 14.8537 1.73736 11.8793 1.11147L11.5704 2.57933ZM11.0103 2.07338C11.2399 2.79294 12.0882 5.55592 12.4355 8.09109L13.9216 7.8875C13.5557 5.21635 12.6731 2.34989 12.4393 1.61742L11.0103 2.07338ZM12.4355 8.09109C12.5285 8.76993 12.5837 9.41939 12.5837 10.0001H14.0837C14.0837 9.33066 14.0206 8.60971 13.9216 7.8875L12.4355 8.09109ZM17.4333 6.16343C16.5207 6.44023 14.808 6.92591 13.0425 7.25175L13.3147 8.72684C15.1593 8.38641 16.9324 7.88284 17.8687 7.59886L17.4333 6.16343ZM13.0425 7.25175C11.9709 7.44951 10.9059 7.58342 10.0003 7.58342V9.08342C11.0355 9.08342 12.2011 8.93237 13.3147 8.72684L13.0425 7.25175ZM12.5837 10.0001C12.5837 10.861 12.4626 11.8668 12.2803 12.8864L13.7569 13.1504C13.9469 12.0879 14.0837 10.9853 14.0837 10.0001H12.5837ZM12.2803 12.8864C11.8808 15.1209 11.2091 17.3037 11.0103 17.9268L12.4393 18.3827C12.6444 17.74 13.3399 15.4829 13.7569 13.1504L12.2803 12.8864ZM17.927 11.0101C17.304 11.2089 15.1211 11.8805 12.8866 12.2801L13.1506 13.7567C15.4831 13.3396 17.7403 12.6442 18.383 12.4391L17.927 11.0101ZM12.8866 12.2801C11.867 12.4624 10.8612 12.5834 10.0003 12.5834V14.0834C10.9855 14.0834 12.0882 13.9466 13.1506 13.7567L12.8866 12.2801ZM10.0003 12.5834C9.13945 12.5834 8.13364 12.4624 7.11405 12.2801L6.85004 13.7567C7.91249 13.9466 9.01511 14.0834 10.0003 14.0834V12.5834ZM7.11405 12.2801C4.87955 11.8805 2.69666 11.2089 2.07363 11.0101L1.61766 12.4391C2.26037 12.6442 4.51752 13.3396 6.85004 13.7567L7.11405 12.2801ZM5.91699 10.0001C5.91699 10.9853 6.05379 12.0879 6.24375 13.1504L7.72034 12.8864C7.53804 11.8668 7.41699 10.861 7.41699 10.0001H5.91699ZM6.24375 13.1504C6.6608 15.4829 7.35624 17.74 7.56131 18.3827L8.99033 17.9268C8.79154 17.3038 8.11986 15.1209 7.72034 12.8864L6.24375 13.1504ZM7.56131 1.61742C7.3276 2.34989 6.44495 5.21635 6.07902 7.8875L7.56514 8.09109C7.91244 5.55592 8.76074 2.79294 8.99033 2.07338L7.56131 1.61742ZM6.07902 7.8875C5.98008 8.60971 5.91699 9.33066 5.91699 10.0001H7.41699C7.41699 9.41939 7.47214 8.76993 7.56514 8.09109L6.07902 7.8875ZM10.0003 7.58342C9.09475 7.58342 8.0297 7.44951 6.9582 7.25175L6.68596 8.72684C7.79958 8.93237 8.96518 9.08342 10.0003 9.08342V7.58342ZM6.9582 7.25175C5.19201 6.92579 3.47869 6.43988 2.56633 6.16314L2.13093 7.59855C3.06697 7.88248 4.84072 8.38629 6.68596 8.72684L6.9582 7.25175ZM17.3735 6.18774C17.3911 6.17857 17.4115 6.17006 17.4333 6.16343L17.8687 7.59886C17.938 7.57786 18.0031 7.55096 18.0647 7.51897L17.3735 6.18774ZM1.89121 7.49091C1.96475 7.53589 2.04474 7.57241 2.13093 7.59855L2.56633 6.16314C2.60568 6.17507 2.64201 6.1918 2.67379 6.21124L1.89121 7.49091Z" fill="black"/>
</g>
</g>
<defs>
<clipPath id="clip0_23_179">
<rect width="20" height="20" fill="white"/>
</clipPath>
</defs>
</svg>
