<svg width="20" height="20" viewBox="0 0 20 20" fill="none" xmlns="http://www.w3.org/2000/svg">
<g id="icon-search" clip-path="url(#clip0_23_172)">
<g id="Search 2">
<path id="Vector" d="M16.364 14.4697C16.0712 14.1768 15.5963 14.1768 15.3034 14.4697C15.0105 14.7626 15.0105 15.2374 15.3034 15.5303L16.364 14.4697ZM18.6366 18.8636C18.9295 19.1565 19.4044 19.1565 19.6973 18.8636C19.9902 18.5707 19.9902 18.0959 19.6973 17.803L18.6366 18.8636ZM15.3034 15.5303L18.6366 18.8636L19.6973 17.803L16.364 14.4697L15.3034 15.5303ZM9.16699 15.0833C5.43907 15.0833 2.41699 12.0612 2.41699 8.33325H0.916992C0.916992 12.8896 4.61064 16.5833 9.16699 16.5833V15.0833ZM15.917 8.33325C15.917 12.0612 12.8949 15.0833 9.16699 15.0833V16.5833C13.7233 16.5833 17.417 12.8896 17.417 8.33325H15.917ZM9.16699 1.58325C12.8949 1.58325 15.917 4.60533 15.917 8.33325H17.417C17.417 3.7769 13.7233 0.083252 9.16699 0.083252V1.58325ZM9.16699 0.083252C4.61064 0.083252 0.916992 3.7769 0.916992 8.33325H2.41699C2.41699 4.60533 5.43907 1.58325 9.16699 1.58325V0.083252Z" fill="black"/>
</g>
</g>
<defs>
<clipPath id="clip0_23_172">
<rect width="20" height="20" fill="white"/>
</clipPath>
</defs>
</svg>
