<svg width="20" height="20" viewBox="0 0 20 20" fill="none" xmlns="http://www.w3.org/2000/svg">
<g id="icon-cart">
<g id="Bag 1">
<path id="Vector" d="M13.3337 8.33325V5.06882M6.667 8.33325V5.06882M6.667 5.06882V4.16659C6.667 2.32564 8.15938 0.833252 10.0003 0.833252C11.8413 0.833252 13.3337 2.32564 13.3337 4.16659V5.06882M6.667 5.06882C7.32259 4.99992 8.15802 4.99992 9.32359 4.99992H10.6771C11.8426 4.99992 12.6781 4.99992 13.3337 5.06882M6.667 5.06882C6.16529 5.12155 5.7689 5.21463 5.41046 5.37895C4.68189 5.71294 4.0651 6.24999 3.63405 6.92569C3.14488 7.69249 3.00336 8.71148 2.7203 10.7495C2.35683 13.3665 2.17509 14.675 2.57469 15.6913C2.92551 16.5835 3.57325 17.3274 4.4087 17.7976C5.36034 18.3333 6.68142 18.3333 9.32359 18.3333H10.6771C13.3192 18.3333 14.6403 18.3333 15.592 17.7976C16.4274 17.3274 17.0752 16.5835 17.426 15.6913C17.8256 14.675 17.6438 13.3665 17.2804 10.7495C16.9973 8.71148 16.8558 7.69249 16.3666 6.92569C15.9356 6.24999 15.3188 5.71294 14.5902 5.37895C14.2318 5.21463 13.8354 5.12155 13.3337 5.06882" stroke="black" stroke-width="1.5" stroke-linecap="round"/>
</g>
</g>
</svg>
