<svg width="52" height="22" viewBox="0 0 52 22" fill="none" xmlns="http://www.w3.org/2000/svg">
<g id="klarna" clip-path="url(#clip0_39_1637)">
<g id="Lager 2">
<g id="Layer 1">
<path id="Vector" d="M45.896 0.847656H6.10397C2.73284 0.847656 0 3.5805 0 6.95162V15.7774C0 19.1485 2.73284 21.8813 6.10397 21.8813H45.896C49.2672 21.8813 52 19.1485 52 15.7774V6.95162C52 3.5805 49.2672 0.847656 45.896 0.847656Z" fill="#FFB3C7"/>
<path id="Vector_2" d="M41.64 10.0638C41.156 9.73399 40.5911 9.5424 40.0063 9.50967C39.4215 9.47694 38.8388 9.60432 38.321 9.87809C37.8031 10.1519 37.3697 10.5617 37.0675 11.0634C36.7652 11.5651 36.6055 12.1398 36.6055 12.7255C36.6055 13.3113 36.7652 13.8859 37.0675 14.3877C37.3697 14.8894 37.8031 15.2992 38.321 15.573C38.8388 15.8467 39.4215 15.9741 40.0063 15.9414C40.5911 15.9086 41.156 15.7171 41.64 15.3872V15.7772H43.4676V9.67341H41.64V10.0638ZM39.9779 14.296C39.6709 14.2797 39.3753 14.1737 39.1279 13.9912C38.8804 13.8086 38.6919 13.5576 38.5857 13.269C38.4794 12.9805 38.4601 12.6671 38.53 12.3677C38.6 12.0683 38.7562 11.796 38.9793 11.5844C39.2024 11.3728 39.4827 11.2313 39.7854 11.1774C40.0881 11.1234 40.4 11.1593 40.6825 11.2808C40.965 11.4022 41.2057 11.6038 41.3748 11.8606C41.5439 12.1174 41.634 12.4181 41.634 12.7256C41.6224 13.1534 41.4414 13.559 41.1309 13.8534C40.8204 14.1479 40.4057 14.307 39.9779 14.296Z" fill="black"/>
<path id="Vector_3" d="M16.5776 6.95312H14.665V15.7772H16.5776V6.95312Z" fill="black"/>
<path id="Vector_4" d="M33.3606 9.50973C33.0013 9.48849 32.6422 9.55494 32.3143 9.70335C31.9863 9.85176 31.6994 10.0777 31.4782 10.3616V9.67426H29.6582V15.7779H31.5001V12.5702C31.4859 12.3859 31.5116 12.2008 31.5754 12.0273C31.6392 11.8539 31.7396 11.6962 31.8698 11.565C31.9999 11.4338 32.1568 11.3322 32.3298 11.267C32.5027 11.2019 32.6876 11.1748 32.872 11.1875C33.6753 11.1875 34.1369 11.6673 34.1369 12.5576V15.7779H35.9625V11.8963C35.9624 10.4757 34.833 9.50973 33.3606 9.50973Z" fill="black"/>
<path id="Vector_5" d="M22.3598 10.0641C21.8757 9.73423 21.3109 9.54264 20.726 9.50991C20.1412 9.47719 19.5585 9.60456 19.0407 9.87833C18.5228 10.1521 18.0895 10.5619 17.7872 11.0636C17.4849 11.5654 17.3252 12.14 17.3252 12.7258C17.3252 13.3115 17.4849 13.8862 17.7872 14.3879C18.0895 14.8896 18.5228 15.2994 19.0407 15.5732C19.5585 15.847 20.1412 15.9743 20.726 15.9416C21.3109 15.9089 21.8757 15.7173 22.3598 15.3875V15.7775H24.1873V9.67365H22.3598V10.0641ZM20.6976 14.2962C20.3905 14.28 20.095 14.174 19.8475 13.9915C19.6 13.809 19.4115 13.558 19.3052 13.2694C19.1989 12.9809 19.1795 12.6675 19.2495 12.3681C19.3194 12.0687 19.4756 11.7963 19.6987 11.5847C19.9218 11.3731 20.2021 11.2316 20.5048 11.1776C20.8075 11.1236 21.1194 11.1596 21.4019 11.281C21.6844 11.4024 21.9251 11.604 22.0942 11.8608C22.2634 12.1176 22.3535 12.4184 22.3535 12.7258C22.3418 13.1536 22.1609 13.5592 21.8504 13.8536C21.5399 14.1481 21.1253 14.3073 20.6976 14.2962Z" fill="black"/>
<path id="Vector_6" d="M27.0147 10.4686V9.67355H25.1436V15.7775H27.0187V12.9279C27.0187 11.9663 28.0609 11.4495 28.784 11.4495C28.7913 11.4495 28.7984 11.4502 28.8057 11.4503V9.67392C28.4669 9.66482 28.1303 9.73144 27.8204 9.86891C27.5106 10.0064 27.2353 10.2112 27.0147 10.4686Z" fill="black"/>
<path id="Vector_7" d="M45.4078 13.6123C45.1809 13.6123 44.9591 13.6796 44.7705 13.8056C44.5819 13.9317 44.4349 14.1108 44.348 14.3204C44.2612 14.53 44.2385 14.7607 44.2828 14.9832C44.3271 15.2057 44.4363 15.4101 44.5967 15.5705C44.7572 15.7309 44.9615 15.8401 45.184 15.8844C45.4066 15.9287 45.6372 15.9059 45.8468 15.8191C46.0564 15.7323 46.2355 15.5853 46.3616 15.3966C46.4876 15.208 46.5549 14.9862 46.5549 14.7594C46.5549 14.6087 46.5252 14.4596 46.4676 14.3204C46.4099 14.1812 46.3254 14.0547 46.2189 13.9482C46.1124 13.8417 45.9859 13.7572 45.8468 13.6996C45.7076 13.6419 45.5584 13.6123 45.4078 13.6123Z" fill="black"/>
<path id="Vector_8" d="M13.347 6.95117H11.3649C11.368 7.74604 11.1841 8.5305 10.8281 9.24119C10.4721 9.95189 9.95391 10.5689 9.31547 11.0424L8.53027 11.6305L11.5729 15.7797H14.0745L11.2749 11.9619C11.9352 11.3057 12.4584 10.5248 12.8141 9.66458C13.1698 8.80437 13.3509 7.88202 13.347 6.95117Z" fill="black"/>
<path id="Vector_9" d="M8.28835 6.95117H6.30273V15.7794H8.28835V6.95117Z" fill="black"/>
</g>
</g>
</g>
<defs>
<clipPath id="clip0_39_1637">
<rect width="52" height="21.0337" fill="white" transform="translate(0 0.847656)"/>
</clipPath>
</defs>
</svg>
