<svg width="100" height="24" viewBox="0 0 100 24" fill="none" xmlns="http://www.w3.org/2000/svg">
<path fill-rule="evenodd" clip-rule="evenodd" d="M3.74979 23.52C5.25395 23.84 6.78988 24 8.35759 24C11.3023 24 13.5798 23.4133 15.1898 22.24C16.8211 21.0453 17.6367 19.3813 17.6367 17.248C17.6367 16.2667 17.4673 15.4133 17.1283 14.688C16.7893 13.9627 16.2915 13.3333 15.6347 12.8C14.9992 12.2453 14.2047 11.7653 13.2514 11.36C12.3192 10.9333 11.2494 10.5493 10.0418 10.208C9.10966 9.93067 8.30462 9.67467 7.6267 9.44C6.96995 9.20533 6.41914 8.96 5.97425 8.704C5.55054 8.448 5.23276 8.14933 5.02091 7.808C4.80906 7.44533 4.70313 7.008 4.70313 6.496C4.70313 5.64267 5.07387 5.00267 5.81536 4.576C6.55684 4.128 7.64788 3.904 9.08848 3.904C10.296 3.904 11.5142 4.04267 12.7429 4.32C13.9717 4.576 15.0945 4.94933 16.1114 5.44L17.1601 1.504C16.122 1.03467 14.8826 0.671999 13.4421 0.415999C12.0226 0.138667 10.5926 0 9.15203 0C6.24965 0 4.00401 0.565334 2.41512 1.696C0.826225 2.80533 0.0317779 4.40533 0.0317779 6.496C0.0317779 7.456 0.190667 8.30933 0.508446 9.056C0.847411 9.78133 1.32408 10.4213 1.93845 10.976C2.57401 11.5307 3.33668 12.0107 4.22646 12.416C5.11624 12.8213 6.12254 13.184 7.24536 13.504C8.21988 13.76 9.06729 14.0053 9.78759 14.24C10.5079 14.4747 11.1011 14.7307 11.5672 15.008C12.0332 15.264 12.3828 15.5733 12.6158 15.936C12.8489 16.2773 12.9654 16.704 12.9654 17.216C12.9654 18.1547 12.5946 18.8693 11.8532 19.36C11.1117 19.8507 10.0418 20.096 8.64359 20.096C7.83855 20.096 6.98055 20.0213 6.06958 19.872C5.15861 19.7013 4.26883 19.4773 3.40023 19.2C2.53164 18.9013 1.73719 18.5707 1.01689 18.208L0 22.144C0.995707 22.72 2.24564 23.1787 3.74979 23.52ZM56.5001 22.56C58.3009 23.52 60.4194 24 62.8557 24C65.3344 24 67.4635 23.52 69.2431 22.56C71.0438 21.5787 72.4209 20.192 73.3742 18.4C74.3487 16.5867 74.836 14.4533 74.836 12C74.836 9.52533 74.3487 7.392 73.3742 5.6C72.4209 3.808 71.0438 2.432 69.2431 1.472C67.4635 0.490667 65.3344 0 62.8557 0C60.4194 0 58.3009 0.490667 56.5001 1.472C54.6994 2.432 53.3118 3.808 52.3372 5.6C51.3839 7.392 50.9072 9.52533 50.9072 12C50.9072 14.4533 51.3839 16.5867 52.3372 18.4C53.3118 20.192 54.6994 21.5787 56.5001 22.56ZM66.8597 19.104C65.7581 19.744 64.4234 20.064 62.8557 20.064C61.3092 20.064 59.9745 19.744 58.8517 19.104C57.7501 18.464 56.9027 17.5467 56.3095 16.352C55.7375 15.136 55.4515 13.6853 55.4515 12C55.4515 10.3147 55.7375 8.87467 56.3095 7.68C56.9027 6.464 57.7501 5.536 58.8517 4.896C59.9745 4.256 61.3092 3.936 62.8557 3.936C64.4234 3.936 65.7581 4.256 66.8597 4.896C67.9614 5.536 68.7982 6.464 69.3702 7.68C69.9634 8.87467 70.26 10.3147 70.26 12C70.26 13.6853 69.9634 15.136 69.3702 16.352C68.7982 17.5467 67.9614 18.464 66.8597 19.104ZM85.1599 0.192C84.3125 0.256 83.4756 0.341333 82.6494 0.448V23.68H87.0983V16.4612C87.3748 16.4915 87.6396 16.5191 87.8928 16.544C88.7825 16.608 89.5876 16.64 90.3079 16.64C93.528 16.64 95.9432 15.9467 97.5532 14.56C99.1845 13.152 100 11.072 100 8.32C100 5.52533 99.1527 3.44533 97.4579 2.08C95.7631 0.693334 93.1573 0 89.6405 0C89.0686 0 88.3906 0.0213332 87.6068 0.0639993C86.8229 0.0853324 86.0073 0.127999 85.1599 0.192ZM87.0983 12.6373C87.3085 12.6608 87.5098 12.6831 87.7021 12.704C88.486 12.768 89.1639 12.8 89.7359 12.8C91.7697 12.8 93.2315 12.448 94.1212 11.744C95.011 11.0187 95.4559 9.87733 95.4559 8.32C95.4559 6.74133 95.011 5.6 94.1212 4.896C93.2315 4.192 91.7697 3.84 89.7359 3.84C89.1003 3.84 88.3694 3.872 87.5432 3.936C87.3956 3.94743 87.2473 3.96023 87.0983 3.97439V12.6373ZM38.6315 23.6801V13.5041H29.2253V23.6801H24.7764V0.320068H29.2253V9.56807H38.6315V0.320068H43.0804V23.6801H38.6315Z" fill="black"/>
</svg>
