<svg width="36" height="29" viewBox="0 0 36 29" fill="none" xmlns="http://www.w3.org/2000/svg">
<g id="master-card" clip-path="url(#clip0_39_1596)">
<g id="Group 731">
<path id="XMLID_1775_" d="M6.52453 28.2827V26.4272C6.52453 25.7175 6.09218 25.2527 5.34999 25.2527C4.97889 25.2527 4.57537 25.3752 4.29795 25.7787C4.08177 25.44 3.77193 25.2527 3.30716 25.2527C2.99731 25.2527 2.68746 25.3464 2.44246 25.685V25.3139H1.79395V28.2827H2.44246V26.6434C2.44246 26.1174 2.71989 25.8688 3.15223 25.8688C3.58458 25.8688 3.80075 26.1462 3.80075 26.6434V28.2827H4.44927V26.6434C4.44927 26.1174 4.75912 25.8688 5.15904 25.8688C5.59138 25.8688 5.80755 26.1462 5.80755 26.6434V28.2827H6.52453ZM16.1442 25.3139H15.0922V24.4168H14.4437V25.3139H13.8564V25.9012H14.4437V27.2631C14.4437 27.944 14.7211 28.344 15.4633 28.344C15.7407 28.344 16.0505 28.2503 16.2667 28.1278L16.0794 27.5693C15.892 27.6918 15.6758 27.7243 15.5209 27.7243C15.2111 27.7243 15.0886 27.5369 15.0886 27.2307V25.9012H16.1406V25.3139H16.1442ZM21.6494 25.2491C21.2783 25.2491 21.0297 25.4364 20.8748 25.6814V25.3103H20.2263V28.2791H20.8748V26.6074C20.8748 26.1138 21.091 25.8328 21.4945 25.8328C21.617 25.8328 21.7719 25.8652 21.898 25.894L22.0854 25.2743C21.9557 25.2491 21.7719 25.2491 21.6494 25.2491ZM13.3304 25.5589C13.0205 25.3428 12.5882 25.2491 12.1234 25.2491C11.3812 25.2491 10.8876 25.6202 10.8876 26.2075C10.8876 26.7011 11.2587 26.9821 11.9072 27.0722L12.2171 27.1046C12.5558 27.1658 12.7431 27.2595 12.7431 27.4144C12.7431 27.6306 12.4945 27.7855 12.0622 27.7855C11.6298 27.7855 11.2875 27.6306 11.0714 27.4757L10.7615 27.9693C11.1002 28.2179 11.565 28.3404 12.0297 28.3404C12.8944 28.3404 13.3916 27.9368 13.3916 27.382C13.3916 26.856 12.9881 26.5786 12.372 26.4849L12.0622 26.4525C11.7847 26.42 11.5686 26.3588 11.5686 26.175C11.5686 25.9589 11.7847 25.8364 12.127 25.8364C12.4981 25.8364 12.8692 25.9913 13.0566 26.085L13.3304 25.5589ZM30.5846 25.2491C30.2135 25.2491 29.9649 25.4364 29.81 25.6814V25.3103H29.1614V28.2791H29.81V26.6074C29.81 26.1138 30.0261 25.8328 30.4296 25.8328C30.5521 25.8328 30.7071 25.8652 30.8332 25.894L31.0205 25.2815C30.8944 25.2491 30.7107 25.2491 30.5846 25.2491ZM22.2979 26.7983C22.2979 27.6954 22.9176 28.344 23.876 28.344C24.3084 28.344 24.6182 28.2503 24.928 28.0053L24.6182 27.4793C24.3696 27.6666 24.1246 27.7567 23.8436 27.7567C23.3176 27.7567 22.9465 27.3856 22.9465 26.7983C22.9465 26.2399 23.3176 25.8688 23.8436 25.84C24.121 25.84 24.3696 25.9336 24.6182 26.1174L24.928 25.5914C24.6182 25.3428 24.3084 25.2527 23.876 25.2527C22.9176 25.2491 22.2979 25.9012 22.2979 26.7983ZM28.2967 26.7983V25.3139H27.6482V25.685C27.4321 25.4076 27.1222 25.2527 26.7187 25.2527C25.8828 25.2527 25.2343 25.9012 25.2343 26.7983C25.2343 27.6954 25.8828 28.344 26.7187 28.344C27.151 28.344 27.4609 28.189 27.6482 27.9116V28.2827H28.2967V26.7983ZM25.9152 26.7983C25.9152 26.2723 26.2539 25.84 26.8124 25.84C27.3384 25.84 27.7095 26.2435 27.7095 26.7983C27.7095 27.3244 27.3384 27.7567 26.8124 27.7567C26.2575 27.7243 25.9152 27.3207 25.9152 26.7983ZM18.1546 25.2491C17.2899 25.2491 16.6702 25.8688 16.6702 26.7947C16.6702 27.7243 17.2899 28.3404 18.1871 28.3404C18.6194 28.3404 19.0517 28.2179 19.394 27.9368L19.0842 27.4721C18.8356 27.6594 18.5257 27.7819 18.2195 27.7819C17.816 27.7819 17.416 27.5946 17.3224 27.0722H19.5165C19.5165 26.9785 19.5165 26.9172 19.5165 26.8236C19.5453 25.8688 18.9869 25.2491 18.1546 25.2491ZM18.1546 25.8075C18.5582 25.8075 18.8356 26.0561 18.8968 26.5173H17.3512C17.4124 26.1174 17.6899 25.8075 18.1546 25.8075ZM34.2667 26.7983V24.1394H33.6182V25.685C33.402 25.4076 33.0922 25.2527 32.6887 25.2527C31.8528 25.2527 31.2043 25.9012 31.2043 26.7983C31.2043 27.6954 31.8528 28.344 32.6887 28.344C33.121 28.344 33.4308 28.189 33.6182 27.9116V28.2827H34.2667V26.7983ZM31.8852 26.7983C31.8852 26.2723 32.2239 25.84 32.7823 25.84C33.3083 25.84 33.6794 26.2435 33.6794 26.7983C33.6794 27.3244 33.3083 27.7567 32.7823 27.7567C32.2239 27.7243 31.8852 27.3207 31.8852 26.7983ZM10.1742 26.7983V25.3139H9.52573V25.685C9.30956 25.4076 8.99971 25.2527 8.59619 25.2527C7.76032 25.2527 7.1118 25.9012 7.1118 26.7983C7.1118 27.6954 7.76032 28.344 8.59619 28.344C9.02853 28.344 9.33838 28.189 9.52573 27.9116V28.2827H10.1742V26.7983ZM7.76392 26.7983C7.76392 26.2723 8.10259 25.84 8.66104 25.84C9.18706 25.84 9.55815 26.2435 9.55815 26.7983C9.55815 27.3244 9.18706 27.7567 8.66104 27.7567C8.10259 27.7243 7.76392 27.3207 7.76392 26.7983Z" fill="black"/>
<g id="Group">
<path id="rect19" d="M22.8565 2.76733H13.1143V20.2701H22.8565V2.76733Z" fill="#FF5A00"/>
<path id="XMLID_330_" d="M13.763 11.5184C13.763 7.96236 15.4347 4.80624 18 2.767C16.1121 1.28262 13.7306 0.385498 11.1329 0.385498C4.97918 0.385498 0 5.36468 0 11.5184C0 17.6721 4.97918 22.6513 11.1329 22.6513C13.7306 22.6513 16.1121 21.7542 18 20.2698C15.4311 18.2594 13.763 15.0745 13.763 11.5184Z" fill="#EB001B"/>
<path id="path22" d="M36 11.5184C36 17.6721 31.0208 22.6513 24.8671 22.6513C22.2694 22.6513 19.8879 21.7542 18 20.2698C20.5977 18.227 22.237 15.0745 22.237 11.5184C22.237 7.96236 20.5653 4.80624 18 2.767C19.8843 1.28262 22.2658 0.385498 24.8635 0.385498C31.0208 0.385498 36 5.39711 36 11.5184Z" fill="#F79E1B"/>
</g>
</g>
</g>
<defs>
<clipPath id="clip0_39_1596">
<rect width="36" height="27.9584" fill="white" transform="translate(0 0.385498)"/>
</clipPath>
</defs>
</svg>
