<svg width="48" height="17" viewBox="0 0 48 17" fill="none" xmlns="http://www.w3.org/2000/svg">
<g id="visa" clip-path="url(#clip0_39_1588)">
<g id="g4158">
<path id="polygon9" d="M20.7995 15.9076H16.9111L19.3432 0.869629H23.2313L20.7995 15.9076Z" fill="#00579F"/>
<path id="path11" d="M34.8954 1.23739C34.1284 0.933121 32.912 0.597168 31.4079 0.597168C27.568 0.597168 24.864 2.64478 24.8474 5.57225C24.8155 7.73213 26.7834 8.93178 28.2552 9.65195C29.7596 10.3879 30.2709 10.8682 30.2709 11.5241C30.2556 12.5316 29.0553 12.996 27.9358 12.996C26.3834 12.996 25.5516 12.7565 24.2876 12.196L23.7756 11.9558L23.2314 15.3315C24.1434 15.7469 25.8236 16.1156 27.568 16.1318C31.6479 16.1318 34.3041 14.1159 34.3355 10.9962C34.3511 9.28432 33.3119 7.97261 31.0717 6.90075C29.7117 6.21269 28.8789 5.74873 28.8789 5.04472C28.8948 4.40471 29.5833 3.74917 31.1185 3.74917C32.3825 3.71706 33.3113 4.02091 34.0149 4.32497L34.3666 4.48465L34.8954 1.23739Z" fill="#00579F"/>
<path id="path13" d="M40.0637 10.5802C40.384 9.71625 41.6161 6.37267 41.6161 6.37267C41.6 6.40477 41.9357 5.49281 42.1277 4.93296L42.3995 6.22872C42.3995 6.22872 43.1358 9.8283 43.2957 10.5802C42.688 10.5802 40.8318 10.5802 40.0637 10.5802ZM44.8634 0.869629H41.8558C40.9283 0.869629 40.2236 1.14137 39.8235 2.11733L34.0479 15.9074H38.1278C38.1278 15.9074 38.7995 14.0513 38.9438 13.6516C39.3914 13.6516 43.3603 13.6516 43.9361 13.6516C44.0478 14.1795 44.4001 15.9074 44.4001 15.9074H48.0003L44.8634 0.869629Z" fill="#00579F"/>
<path id="path15" d="M13.6644 0.869629L9.85645 11.1241L9.44034 9.04434C8.73632 6.64461 6.52839 4.03737 4.06445 2.74097L7.55241 15.8916H11.6642L17.776 0.869629H13.6644Z" fill="#00579F"/>
<path id="path17" d="M6.31995 0.869873H0.0640009L0 1.17372C4.88003 2.42163 8.11198 5.42969 9.43985 9.04522L8.07988 2.13395C7.85598 1.17351 7.16791 0.901555 6.31995 0.869873Z" fill="#FAA61A"/>
</g>
</g>
<defs>
<clipPath id="clip0_39_1588">
<rect width="48" height="15.5346" fill="white" transform="translate(0 0.597168)"/>
</clipPath>
</defs>
</svg>
